<svg xmlns="http://www.w3.org/2000/svg" xmlns:xlink="http://www.w3.org/1999/xlink" width="1920" zoomAndPan="magnify" viewBox="0 0 1440 299.999988" height="400" preserveAspectRatio="xMidYMid meet" version="1.0"><defs><filter x="0%" y="0%" width="100%" height="100%" id="d42ac1e8fd"><feColorMatrix values="0 0 0 0 1 0 0 0 0 1 0 0 0 0 1 0 0 0 1 0" color-interpolation-filters="sRGB"/></filter><g/><clipPath id="5a0cd0b435"><path d="M 0 0 L 1440 0 L 1440 300 L 0 300 Z M 0 0 " clip-rule="nonzero"/></clipPath><linearGradient x1="206.840685" gradientTransform="matrix(0.774693, 0, 0, 0.77446, 18.638611, 20.880965)" y1="-257.862273" x2="1329.9258" gradientUnits="userSpaceOnUse" y2="865.221369" id="ca1180b682"><stop stop-opacity="1" stop-color="rgb(94.898987%, 31.369019%, 9.799194%)" offset="0"/><stop stop-opacity="1" stop-color="rgb(94.859314%, 31.268311%, 9.806824%)" offset="0.03125"/><stop stop-opacity="1" stop-color="rgb(94.744873%, 30.973816%, 9.832764%)" offset="0.0625"/><stop stop-opacity="1" stop-color="rgb(94.628906%, 30.679321%, 9.858704%)" offset="0.078125"/><stop stop-opacity="1" stop-color="rgb(94.552612%, 30.484009%, 9.875488%)" offset="0.09375"/><stop stop-opacity="1" stop-color="rgb(94.476318%, 30.288696%, 9.893799%)" offset="0.109375"/><stop stop-opacity="1" stop-color="rgb(94.400024%, 30.091858%, 9.910583%)" offset="0.125"/><stop stop-opacity="1" stop-color="rgb(94.284058%, 29.798889%, 9.936523%)" offset="0.15625"/><stop stop-opacity="1" stop-color="rgb(94.169617%, 29.504395%, 9.962463%)" offset="0.171875"/><stop stop-opacity="1" stop-color="rgb(94.093323%, 29.309082%, 9.979248%)" offset="0.172456"/><stop stop-opacity="1" stop-color="rgb(94.055176%, 29.211426%, 9.988403%)" offset="0.1875"/><stop stop-opacity="1" stop-color="rgb(94.017029%, 29.11377%, 9.996033%)" offset="0.203125"/><stop stop-opacity="1" stop-color="rgb(93.939209%, 28.916931%, 10.012817%)" offset="0.21875"/><stop stop-opacity="1" stop-color="rgb(93.824768%, 28.623962%, 10.038757%)" offset="0.25"/><stop stop-opacity="1" stop-color="rgb(93.710327%, 28.329468%, 10.064697%)" offset="0.265625"/><stop stop-opacity="1" stop-color="rgb(93.632507%, 28.134155%, 10.081482%)" offset="0.28125"/><stop stop-opacity="1" stop-color="rgb(93.556213%, 27.938843%, 10.099792%)" offset="0.296875"/><stop stop-opacity="1" stop-color="rgb(93.479919%, 27.742004%, 10.116577%)" offset="0.3125"/><stop stop-opacity="1" stop-color="rgb(93.363953%, 27.449036%, 10.142517%)" offset="0.34375"/><stop stop-opacity="1" stop-color="rgb(93.249512%, 27.154541%, 10.168457%)" offset="0.359375"/><stop stop-opacity="1" stop-color="rgb(93.173218%, 26.959229%, 10.185242%)" offset="0.375"/><stop stop-opacity="1" stop-color="rgb(93.096924%, 26.763916%, 10.202026%)" offset="0.390625"/><stop stop-opacity="1" stop-color="rgb(93.02063%, 26.567078%, 10.218811%)" offset="0.40625"/><stop stop-opacity="1" stop-color="rgb(92.904663%, 26.274109%, 10.244751%)" offset="0.4375"/><stop stop-opacity="1" stop-color="rgb(92.790222%, 25.979614%, 10.270691%)" offset="0.453125"/><stop stop-opacity="1" stop-color="rgb(92.713928%, 25.784302%, 10.287476%)" offset="0.46875"/><stop stop-opacity="1" stop-color="rgb(92.636108%, 25.588989%, 10.30426%)" offset="0.484375"/><stop stop-opacity="1" stop-color="rgb(92.559814%, 25.392151%, 10.322571%)" offset="0.5"/><stop stop-opacity="1" stop-color="rgb(92.445374%, 25.099182%, 10.348511%)" offset="0.53125"/><stop stop-opacity="1" stop-color="rgb(92.330933%, 24.804688%, 10.372925%)" offset="0.546875"/><stop stop-opacity="1" stop-color="rgb(92.253113%, 24.609375%, 10.391235%)" offset="0.5625"/><stop stop-opacity="1" stop-color="rgb(92.176819%, 24.414062%, 10.40802%)" offset="0.578125"/><stop stop-opacity="1" stop-color="rgb(92.100525%, 24.217224%, 10.424805%)" offset="0.59375"/><stop stop-opacity="1" stop-color="rgb(91.984558%, 23.924255%, 10.450745%)" offset="0.625"/><stop stop-opacity="1" stop-color="rgb(91.870117%, 23.629761%, 10.476685%)" offset="0.640625"/><stop stop-opacity="1" stop-color="rgb(91.793823%, 23.434448%, 10.493469%)" offset="0.65625"/><stop stop-opacity="1" stop-color="rgb(91.717529%, 23.239136%, 10.510254%)" offset="0.671875"/><stop stop-opacity="1" stop-color="rgb(91.641235%, 23.042297%, 10.528564%)" offset="0.6875"/><stop stop-opacity="1" stop-color="rgb(91.525269%, 22.749329%, 10.554504%)" offset="0.71875"/><stop stop-opacity="1" stop-color="rgb(91.409302%, 22.451782%, 10.580444%)" offset="0.75"/><stop stop-opacity="1" stop-color="rgb(91.369629%, 22.349548%, 10.5896%)" offset="0.827544"/><stop stop-opacity="1" stop-color="rgb(91.369629%, 22.349548%, 10.5896%)" offset="1"/></linearGradient><clipPath id="5cfe0df806"><rect x="0" width="1440" y="0" height="300"/></clipPath><clipPath id="e0ef80c901"><rect x="0" width="1440" y="0" height="300"/></clipPath><clipPath id="2538c16afb"><rect x="0" width="1440" y="0" height="300"/></clipPath><mask id="5d67789230"><g filter="url(#d42ac1e8fd)"><g><g clip-path="url(#2538c16afb)"><g><g clip-path="url(#e0ef80c901)"><g fill="#000000" fill-opacity="1"><g transform="translate(23.715992, 232.331203)"><g><path d="M 99.375 3.328125 C 81.988281 3.328125 66.375 -0.347656 52.53125 -7.703125 C 38.695312 -15.054688 27.828125 -25.296875 19.921875 -38.421875 C 12.015625 -51.546875 8.0625 -66.410156 8.0625 -83.015625 C 8.0625 -99.617188 12.015625 -114.484375 19.921875 -127.609375 C 27.828125 -140.734375 38.695312 -150.972656 52.53125 -158.328125 C 66.375 -165.679688 81.988281 -169.359375 99.375 -169.359375 C 114.5625 -169.359375 128.238281 -166.664062 140.40625 -161.28125 C 152.582031 -155.90625 162.707031 -148.160156 170.78125 -138.046875 L 140.890625 -111 C 130.140625 -123.96875 117.09375 -130.453125 101.75 -130.453125 C 92.738281 -130.453125 84.710938 -128.472656 77.671875 -124.515625 C 70.640625 -120.566406 65.1875 -114.992188 61.3125 -107.796875 C 57.4375 -100.609375 55.5 -92.347656 55.5 -83.015625 C 55.5 -73.679688 57.4375 -65.414062 61.3125 -58.21875 C 65.1875 -51.03125 70.640625 -45.457031 77.671875 -41.5 C 84.710938 -37.550781 92.738281 -35.578125 101.75 -35.578125 C 117.09375 -35.578125 130.140625 -42.0625 140.890625 -55.03125 L 170.78125 -27.984375 C 162.707031 -17.867188 152.582031 -10.117188 140.40625 -4.734375 C 128.238281 0.640625 114.5625 3.328125 99.375 3.328125 Z M 99.375 3.328125 "/></g></g></g><g fill="#000000" fill-opacity="1"><g transform="translate(198.764352, 232.331203)"><g><path d="M 14.46875 -128.5625 L 59.53125 -128.5625 L 59.53125 0 L 14.46875 0 Z M 37 -142.78125 C 28.78125 -142.78125 22.140625 -145.070312 17.078125 -149.65625 C 12.015625 -154.25 9.484375 -159.945312 9.484375 -166.75 C 9.484375 -173.539062 12.015625 -179.226562 17.078125 -183.8125 C 22.140625 -188.40625 28.78125 -190.703125 37 -190.703125 C 45.21875 -190.703125 51.859375 -188.523438 56.921875 -184.171875 C 61.984375 -179.828125 64.515625 -174.253906 64.515625 -167.453125 C 64.515625 -160.335938 61.984375 -154.445312 56.921875 -149.78125 C 51.859375 -145.113281 45.21875 -142.78125 37 -142.78125 Z M 37 -142.78125 "/></g></g></g><g fill="#000000" fill-opacity="1"><g transform="translate(273.005728, 232.331203)"><g><path d="M 98.203125 -130.6875 C 114.171875 -130.6875 127.015625 -125.941406 136.734375 -116.453125 C 146.460938 -106.972656 151.328125 -92.664062 151.328125 -73.53125 L 151.328125 0 L 106.265625 0 L 106.265625 -66.171875 C 106.265625 -83.722656 99.226562 -92.5 85.15625 -92.5 C 77.40625 -92.5 71.195312 -89.96875 66.53125 -84.90625 C 61.863281 -79.851562 59.53125 -72.265625 59.53125 -62.140625 L 59.53125 0 L 14.46875 0 L 14.46875 -128.5625 L 57.40625 -128.5625 L 57.40625 -114.5625 C 62.457031 -119.78125 68.460938 -123.769531 75.421875 -126.53125 C 82.378906 -129.300781 89.972656 -130.6875 98.203125 -130.6875 Z M 98.203125 -130.6875 "/></g></g></g><g fill="#000000" fill-opacity="1"><g transform="translate(438.091999, 232.331203)"><g><path d="M 145.875 -64.046875 C 145.875 -63.722656 145.632812 -60.003906 145.15625 -52.890625 L 51.703125 -52.890625 C 53.597656 -46.253906 57.273438 -41.15625 62.734375 -37.59375 C 68.191406 -34.03125 75.03125 -32.25 83.25 -32.25 C 89.414062 -32.25 94.75 -33.117188 99.25 -34.859375 C 103.757812 -36.597656 108.3125 -39.445312 112.90625 -43.40625 L 136.625 -18.734375 C 124.125 -4.816406 105.859375 2.140625 81.828125 2.140625 C 66.804688 2.140625 53.601562 -0.703125 42.21875 -6.390625 C 30.832031 -12.085938 22.015625 -19.992188 15.765625 -30.109375 C 9.523438 -40.234375 6.40625 -51.703125 6.40625 -64.515625 C 6.40625 -77.160156 9.445312 -88.503906 15.53125 -98.546875 C 21.625 -108.585938 30.046875 -116.453125 40.796875 -122.140625 C 51.546875 -127.835938 63.640625 -130.6875 77.078125 -130.6875 C 89.890625 -130.6875 101.515625 -128.035156 111.953125 -122.734375 C 122.390625 -117.441406 130.648438 -109.773438 136.734375 -99.734375 C 142.828125 -89.691406 145.875 -77.796875 145.875 -64.046875 Z M 77.328125 -98.671875 C 70.367188 -98.671875 64.554688 -96.691406 59.890625 -92.734375 C 55.222656 -88.785156 52.257812 -83.410156 51 -76.609375 L 103.65625 -76.609375 C 102.382812 -83.410156 99.414062 -88.785156 94.75 -92.734375 C 90.09375 -96.691406 84.285156 -98.671875 77.328125 -98.671875 Z M 77.328125 -98.671875 "/></g></g></g><g fill="#000000" fill-opacity="1"><g transform="translate(590.369847, 232.331203)"><g><path d="M 181.921875 -130.6875 C 197.734375 -130.6875 210.34375 -125.941406 219.75 -116.453125 C 229.15625 -106.972656 233.859375 -92.664062 233.859375 -73.53125 L 233.859375 0 L 188.796875 0 L 188.796875 -66.171875 C 188.796875 -75.179688 187.097656 -81.820312 183.703125 -86.09375 C 180.304688 -90.363281 175.523438 -92.5 169.359375 -92.5 C 162.554688 -92.5 157.097656 -90.125 152.984375 -85.375 C 148.867188 -80.632812 146.8125 -73.441406 146.8125 -63.796875 L 146.8125 0 L 101.75 0 L 101.75 -66.171875 C 101.75 -83.722656 95.265625 -92.5 82.296875 -92.5 C 75.347656 -92.5 69.816406 -90.125 65.703125 -85.375 C 61.585938 -80.632812 59.53125 -73.441406 59.53125 -63.796875 L 59.53125 0 L 14.46875 0 L 14.46875 -128.5625 L 57.40625 -128.5625 L 57.40625 -115.03125 C 62.144531 -120.25 67.796875 -124.160156 74.359375 -126.765625 C 80.921875 -129.378906 88.078125 -130.6875 95.828125 -130.6875 C 104.835938 -130.6875 112.898438 -129.023438 120.015625 -125.703125 C 127.128906 -122.390625 132.898438 -117.332031 137.328125 -110.53125 C 142.390625 -117.007812 148.796875 -121.988281 156.546875 -125.46875 C 164.296875 -128.945312 172.753906 -130.6875 181.921875 -130.6875 Z M 181.921875 -130.6875 "/></g></g></g><g fill="#000000" fill-opacity="1"><g transform="translate(838.236482, 232.331203)"><g><path d="M 69.265625 -130.6875 C 90.609375 -130.6875 106.890625 -125.820312 118.109375 -116.09375 C 129.335938 -106.375 134.953125 -91.472656 134.953125 -71.390625 L 134.953125 0 L 92.984375 0 L 92.984375 -16.609375 C 86.492188 -4.109375 73.84375 2.140625 55.03125 2.140625 C 45.0625 2.140625 36.441406 0.398438 29.171875 -3.078125 C 21.898438 -6.554688 16.40625 -11.257812 12.6875 -17.1875 C 8.96875 -23.125 7.109375 -29.882812 7.109375 -37.46875 C 7.109375 -49.644531 11.773438 -59.09375 21.109375 -65.8125 C 30.441406 -72.539062 44.832031 -75.90625 64.28125 -75.90625 L 89.890625 -75.90625 C 89.097656 -89.5 80.007812 -96.296875 62.625 -96.296875 C 56.445312 -96.296875 50.195312 -95.304688 43.875 -93.328125 C 37.550781 -91.359375 32.175781 -88.632812 27.75 -85.15625 L 12.578125 -115.75 C 19.691406 -120.488281 28.347656 -124.160156 38.546875 -126.765625 C 48.742188 -129.378906 58.984375 -130.6875 69.265625 -130.6875 Z M 67.59375 -26.328125 C 72.8125 -26.328125 77.394531 -27.59375 81.34375 -30.125 C 85.300781 -32.65625 88.148438 -36.367188 89.890625 -41.265625 L 89.890625 -52.421875 L 70.4375 -52.421875 C 57.320312 -52.421875 50.765625 -48.070312 50.765625 -39.375 C 50.765625 -35.414062 52.265625 -32.25 55.265625 -29.875 C 58.265625 -27.507812 62.375 -26.328125 67.59375 -26.328125 Z M 67.59375 -26.328125 "/></g></g></g></g></g></g></g></g></mask><clipPath id="aa2a7d8645"><path d="M 0 0 L 1440 0 L 1440 300 L 0 300 Z M 0 0 " clip-rule="nonzero"/></clipPath><clipPath id="bd3a5c033d"><rect x="0" width="1440" y="0" height="300"/></clipPath><clipPath id="fde955d6a1"><rect x="0" width="1440" y="0" height="300"/></clipPath><clipPath id="6e77f4965d"><rect x="0" width="1440" y="0" height="300"/></clipPath><clipPath id="0008c448cc"><path d="M 0.492188 0 L 900 0 L 900 300 L 0.492188 300 Z M 0.492188 0 " clip-rule="nonzero"/></clipPath><clipPath id="9709b8986f"><path d="M 0.492188 0 L 900 0 L 900 300 L 0.492188 300 Z M 0.492188 0 " clip-rule="nonzero"/></clipPath><clipPath id="7f5ff87e6d"><path d="M 0.492188 0 L 900 0 L 900 300 L 0.492188 300 Z M 0.492188 0 " clip-rule="nonzero"/></clipPath><linearGradient x1="-591.90601" gradientTransform="matrix(0.801282, 0, 0, 0.801578, 474.777138, 24.40576)" y1="158" x2="530.678051" gradientUnits="userSpaceOnUse" y2="158" id="6199361297"><stop stop-opacity="1" stop-color="rgb(91.758728%, 23.139954%, 10.5896%)" offset="0"/><stop stop-opacity="1" stop-color="rgb(91.758728%, 23.139954%, 10.5896%)" offset="0.5"/><stop stop-opacity="1" stop-color="rgb(91.601562%, 23.062134%, 10.658264%)" offset="0.53125"/><stop stop-opacity="1" stop-color="rgb(91.134644%, 22.833252%, 10.864258%)" offset="0.535156"/><stop stop-opacity="1" stop-color="rgb(90.82489%, 22.68219%, 11.000061%)" offset="0.539062"/><stop stop-opacity="1" stop-color="rgb(90.515137%, 22.531128%, 11.135864%)" offset="0.542969"/><stop stop-opacity="1" stop-color="rgb(90.205383%, 22.380066%, 11.271667%)" offset="0.546875"/><stop stop-opacity="1" stop-color="rgb(89.89563%, 22.229004%, 11.407471%)" offset="0.550781"/><stop stop-opacity="1" stop-color="rgb(89.585876%, 22.077942%, 11.543274%)" offset="0.554688"/><stop stop-opacity="1" stop-color="rgb(89.276123%, 21.92688%, 11.679077%)" offset="0.558594"/><stop stop-opacity="1" stop-color="rgb(88.96637%, 21.775818%, 11.816406%)" offset="0.5625"/><stop stop-opacity="1" stop-color="rgb(88.656616%, 21.62323%, 11.952209%)" offset="0.566406"/><stop stop-opacity="1" stop-color="rgb(88.346863%, 21.472168%, 12.088013%)" offset="0.570312"/><stop stop-opacity="1" stop-color="rgb(88.037109%, 21.321106%, 12.223816%)" offset="0.574219"/><stop stop-opacity="1" stop-color="rgb(87.728882%, 21.170044%, 12.359619%)" offset="0.578125"/><stop stop-opacity="1" stop-color="rgb(87.419128%, 21.018982%, 12.495422%)" offset="0.582031"/><stop stop-opacity="1" stop-color="rgb(87.109375%, 20.86792%, 12.632751%)" offset="0.585938"/><stop stop-opacity="1" stop-color="rgb(86.799622%, 20.716858%, 12.768555%)" offset="0.589844"/><stop stop-opacity="1" stop-color="rgb(86.489868%, 20.565796%, 12.904358%)" offset="0.59375"/><stop stop-opacity="1" stop-color="rgb(86.180115%, 20.413208%, 13.040161%)" offset="0.597656"/><stop stop-opacity="1" stop-color="rgb(85.870361%, 20.262146%, 13.175964%)" offset="0.601562"/><stop stop-opacity="1" stop-color="rgb(85.560608%, 20.111084%, 13.311768%)" offset="0.605469"/><stop stop-opacity="1" stop-color="rgb(85.250854%, 19.960022%, 13.447571%)" offset="0.609375"/><stop stop-opacity="1" stop-color="rgb(84.941101%, 19.80896%, 13.583374%)" offset="0.613281"/><stop stop-opacity="1" stop-color="rgb(84.632874%, 19.657898%, 13.720703%)" offset="0.617188"/><stop stop-opacity="1" stop-color="rgb(84.32312%, 19.506836%, 13.856506%)" offset="0.621094"/><stop stop-opacity="1" stop-color="rgb(84.013367%, 19.355774%, 13.99231%)" offset="0.625"/><stop stop-opacity="1" stop-color="rgb(83.703613%, 19.203186%, 14.128113%)" offset="0.628906"/><stop stop-opacity="1" stop-color="rgb(83.39386%, 19.052124%, 14.263916%)" offset="0.632812"/><stop stop-opacity="1" stop-color="rgb(83.084106%, 18.901062%, 14.399719%)" offset="0.636719"/><stop stop-opacity="1" stop-color="rgb(82.774353%, 18.75%, 14.537048%)" offset="0.640625"/><stop stop-opacity="1" stop-color="rgb(82.4646%, 18.598938%, 14.672852%)" offset="0.644531"/><stop stop-opacity="1" stop-color="rgb(82.154846%, 18.447876%, 14.808655%)" offset="0.648438"/><stop stop-opacity="1" stop-color="rgb(81.845093%, 18.296814%, 14.944458%)" offset="0.652344"/><stop stop-opacity="1" stop-color="rgb(81.535339%, 18.145752%, 15.080261%)" offset="0.65625"/><stop stop-opacity="1" stop-color="rgb(81.225586%, 17.993164%, 15.216064%)" offset="0.660156"/><stop stop-opacity="1" stop-color="rgb(80.917358%, 17.842102%, 15.353394%)" offset="0.664063"/><stop stop-opacity="1" stop-color="rgb(80.607605%, 17.69104%, 15.489197%)" offset="0.667969"/><stop stop-opacity="1" stop-color="rgb(80.297852%, 17.539978%, 15.625%)" offset="0.671875"/><stop stop-opacity="1" stop-color="rgb(79.988098%, 17.388916%, 15.760803%)" offset="0.675781"/><stop stop-opacity="1" stop-color="rgb(79.678345%, 17.237854%, 15.896606%)" offset="0.679688"/><stop stop-opacity="1" stop-color="rgb(79.368591%, 17.086792%, 16.03241%)" offset="0.683594"/><stop stop-opacity="1" stop-color="rgb(79.058838%, 16.93573%, 16.168213%)" offset="0.6875"/><stop stop-opacity="1" stop-color="rgb(78.749084%, 16.783142%, 16.304016%)" offset="0.691406"/><stop stop-opacity="1" stop-color="rgb(78.439331%, 16.63208%, 16.441345%)" offset="0.695312"/><stop stop-opacity="1" stop-color="rgb(78.129578%, 16.481018%, 16.577148%)" offset="0.699219"/><stop stop-opacity="1" stop-color="rgb(77.819824%, 16.329956%, 16.712952%)" offset="0.703125"/><stop stop-opacity="1" stop-color="rgb(77.510071%, 16.178894%, 16.848755%)" offset="0.707031"/><stop stop-opacity="1" stop-color="rgb(77.201843%, 16.027832%, 16.984558%)" offset="0.710938"/><stop stop-opacity="1" stop-color="rgb(76.89209%, 15.87677%, 17.120361%)" offset="0.714844"/><stop stop-opacity="1" stop-color="rgb(76.582336%, 15.725708%, 17.25769%)" offset="0.71875"/><stop stop-opacity="1" stop-color="rgb(76.272583%, 15.57312%, 17.393494%)" offset="0.722656"/><stop stop-opacity="1" stop-color="rgb(75.96283%, 15.422058%, 17.529297%)" offset="0.726562"/><stop stop-opacity="1" stop-color="rgb(75.8255%, 15.354919%, 17.588806%)" offset="0.734375"/><stop stop-opacity="1" stop-color="rgb(75.689697%, 15.289307%, 17.649841%)" offset="0.75"/><stop stop-opacity="1" stop-color="rgb(75.689697%, 15.289307%, 17.649841%)" offset="1"/></linearGradient><clipPath id="b11544b3e9"><rect x="0" width="900" y="0" height="300"/></clipPath><clipPath id="8ea59c71ec"><path d="M 0.492188 0 L 900 0 L 900 300 L 0.492188 300 Z M 0.492188 0 " clip-rule="nonzero"/></clipPath><clipPath id="5314160b69"><rect x="0" width="900" y="0" height="300"/></clipPath><clipPath id="d0574153e0"><rect x="0" width="900" y="0" height="300"/></clipPath><mask id="465f778327"><g filter="url(#d42ac1e8fd)"><g><g clip-path="url(#d0574153e0)"><g clip-path="url(#8ea59c71ec)"><g><g clip-path="url(#5314160b69)"><g fill="#000000" fill-opacity="1"><g transform="translate(474.96357, 235.200829)"><g><path d="M 123.34375 -87.515625 L 171.953125 -87.515625 L 171.953125 -17.3125 C 162.148438 -10.507812 150.765625 -5.289062 137.796875 -1.65625 C 124.835938 1.976562 112.113281 3.796875 99.625 3.796875 C 81.90625 3.796875 66.007812 0.117188 51.9375 -7.234375 C 37.863281 -14.585938 26.832031 -24.863281 18.84375 -38.0625 C 10.863281 -51.269531 6.875 -66.253906 6.875 -83.015625 C 6.875 -99.773438 10.863281 -114.753906 18.84375 -127.953125 C 26.832031 -141.160156 37.984375 -151.441406 52.296875 -158.796875 C 66.609375 -166.148438 82.773438 -169.828125 100.796875 -169.828125 C 117.085938 -169.828125 131.675781 -167.097656 144.5625 -161.640625 C 157.445312 -156.179688 168.160156 -148.238281 176.703125 -137.8125 L 140.890625 -106.265625 C 130.453125 -118.429688 118.039062 -124.515625 103.65625 -124.515625 C 91.320312 -124.515625 81.515625 -120.800781 74.234375 -113.375 C 66.960938 -105.945312 63.328125 -95.828125 63.328125 -83.015625 C 63.328125 -70.523438 66.921875 -60.484375 74.109375 -52.890625 C 81.304688 -45.296875 90.914062 -41.5 102.9375 -41.5 C 110.050781 -41.5 116.851562 -42.847656 123.34375 -45.546875 Z M 123.34375 -87.515625 "/></g></g></g></g></g></g></g></g></g></mask><clipPath id="4642748d94"><path d="M 0.492188 0 L 900 0 L 900 300 L 0.492188 300 Z M 0.492188 0 " clip-rule="nonzero"/></clipPath><clipPath id="24d6e14258"><rect x="0" width="900" y="0" height="300"/></clipPath><clipPath id="186cefe756"><rect x="0" width="900" y="0" height="300"/></clipPath><clipPath id="9b79b5bf6b"><rect x="0" width="900" y="0" height="300"/></clipPath><clipPath id="a411c99a1f"><path d="M 1268 177 L 1421.414062 177 L 1421.414062 245.574219 L 1268 245.574219 Z M 1268 177 " clip-rule="nonzero"/></clipPath><clipPath id="10cfb3006f"><path d="M 1206.914062 66.324219 L 1387 66.324219 L 1387 245.574219 L 1206.914062 245.574219 Z M 1206.914062 66.324219 " clip-rule="nonzero"/></clipPath></defs><g><g clip-path="url(#6e77f4965d)"><g><g clip-path="url(#fde955d6a1)"><g mask="url(#5d67789230)"><g><g clip-path="url(#bd3a5c033d)"><g clip-path="url(#aa2a7d8645)"><rect x="-772.992" fill="url(#ca1180b682)" width="2985.984" height="622.079975" y="-161.039994"/></g></g></g></g></g></g></g></g><g transform="matrix(1, 0, 0, 1, 540, 0)"><g clip-path="url(#9b79b5bf6b)"><g clip-path="url(#0008c448cc)"><g><g clip-path="url(#186cefe756)"><g clip-path="url(#9709b8986f)"><g mask="url(#465f778327)"><g><g clip-path="url(#24d6e14258)"><g clip-path="url(#4642748d94)"><path fill="url(#6199361297)" d="M 0.492188 0 L 0.492188 300 L 900 300 L 900 0 Z M 0.492188 0 " fill-rule="nonzero"/></g></g></g></g></g></g></g></g></g></g><path fill="#c1272d" d="M 1296.457031 234.058594 C 1287.371094 234.058594 1278.667969 232.511719 1270.566406 229.640625 L 1270.78125 229.042969 C 1272.367188 229.46875 1274.167969 229.898438 1275.925781 230.285156 C 1277.683594 230.671875 1279.441406 231.011719 1281.199219 231.3125 C 1284.710938 231.957031 1288.3125 232.429688 1291.871094 232.8125 C 1296.027344 233.242188 1300.1875 233.542969 1304.300781 233.628906 C 1301.730469 233.929688 1299.113281 234.058594 1296.457031 234.058594 Z M 1296.457031 234.058594 " fill-opacity="1" fill-rule="nonzero"/><g clip-path="url(#a411c99a1f)"><path fill="#c1272d" d="M 1421.238281 178.976562 C 1419.007812 184.417969 1416.4375 189.777344 1413.4375 195.007812 C 1411.550781 198.351562 1409.40625 201.566406 1407.175781 204.738281 C 1404.863281 207.867188 1402.460938 210.953125 1399.761719 213.867188 C 1394.445312 219.695312 1388.359375 224.96875 1381.628906 229.382812 C 1378.242188 231.570312 1374.730469 233.542969 1371.085938 235.300781 C 1367.441406 237.058594 1363.667969 238.558594 1359.855469 239.800781 C 1352.226562 242.371094 1344.335938 243.957031 1336.449219 244.730469 C 1328.605469 245.542969 1320.71875 245.542969 1313.003906 244.988281 C 1311.460938 244.859375 1309.960938 244.730469 1308.417969 244.558594 C 1302.246094 243.914062 1296.199219 242.929688 1290.199219 241.601562 C 1286.46875 240.785156 1282.785156 239.84375 1279.140625 238.773438 C 1277.339844 238.257812 1275.496094 237.699219 1273.695312 237.101562 C 1271.894531 236.5 1270.136719 235.898438 1268.253906 235.128906 L 1269.539062 231.871094 C 1277.941406 234.828125 1286.941406 236.457031 1296.328125 236.457031 C 1304.128906 236.457031 1311.632812 235.34375 1318.789062 233.285156 C 1330.878906 232.34375 1342.539062 229.640625 1352.78125 224.839844 C 1353.253906 224.625 1353.726562 224.414062 1354.152344 224.199219 C 1365.425781 218.753906 1374.644531 210.695312 1381.414062 201.050781 C 1383.214844 198.566406 1384.757812 195.90625 1386.257812 193.25 C 1387.675781 190.507812 1389.046875 187.761719 1390.246094 184.933594 C 1391.316406 182.40625 1392.261719 179.832031 1393.117188 177.175781 Z M 1421.238281 178.976562 " fill-opacity="1" fill-rule="nonzero"/></g><g clip-path="url(#10cfb3006f)"><path fill="#c1272d" d="M 1296.457031 66.328125 C 1246.992188 66.328125 1206.914062 106.40625 1206.914062 155.871094 C 1206.914062 205.335938 1246.992188 245.414062 1296.457031 245.414062 C 1300.53125 245.414062 1304.558594 245.160156 1308.460938 244.601562 C 1325.777344 242.285156 1341.550781 235 1354.28125 224.242188 C 1373.699219 207.824219 1386.003906 183.304688 1386.003906 155.871094 C 1386.003906 106.40625 1345.878906 66.328125 1296.457031 66.328125 Z M 1318.875 233.328125 C 1311.761719 235.429688 1304.214844 236.5 1296.414062 236.5 C 1287.027344 236.5 1277.984375 234.871094 1269.625 231.914062 C 1238.332031 220.855469 1215.828125 190.933594 1215.828125 155.871094 C 1215.828125 111.421875 1252.007812 75.242188 1296.457031 75.242188 C 1340.910156 75.242188 1377.085938 111.421875 1377.085938 155.871094 C 1377.085938 192.5625 1352.480469 223.554688 1318.875 233.328125 Z M 1318.875 233.328125 " fill-opacity="1" fill-rule="nonzero"/></g><path fill="#c1272d" d="M 1296.457031 77.644531 C 1253.335938 77.644531 1218.273438 112.75 1218.273438 155.871094 C 1218.273438 189.90625 1240.132812 218.96875 1270.609375 229.683594 C 1278.710938 232.554688 1287.414062 234.097656 1296.5 234.097656 C 1299.15625 234.097656 1301.773438 233.972656 1304.34375 233.714844 C 1343.824219 229.769531 1374.6875 196.378906 1374.6875 155.914062 C 1374.644531 112.75 1339.578125 77.644531 1296.457031 77.644531 Z M 1333.964844 102.890625 C 1334.4375 101.648438 1335.851562 101.003906 1337.09375 101.476562 C 1338.335938 101.949219 1338.980469 103.363281 1338.507812 104.605469 C 1338.035156 105.847656 1336.621094 106.492188 1335.378906 106.019531 C 1334.136719 105.546875 1333.492188 104.175781 1333.964844 102.890625 Z M 1296.84375 88.574219 C 1309.015625 88.574219 1318.875 98.433594 1318.875 110.605469 C 1318.875 122.78125 1309.015625 132.636719 1296.84375 132.636719 C 1284.667969 132.636719 1274.8125 122.78125 1274.8125 110.605469 C 1274.8125 98.433594 1284.667969 88.574219 1296.84375 88.574219 Z M 1256.421875 101.863281 C 1257.234375 100.789062 1258.738281 100.574219 1259.808594 101.390625 C 1260.878906 102.203125 1261.09375 103.703125 1260.28125 104.777344 C 1259.464844 105.847656 1257.964844 106.0625 1256.894531 105.246094 C 1255.863281 104.433594 1255.648438 102.933594 1256.421875 101.863281 Z M 1237.476562 179.148438 C 1236.402344 179.960938 1234.859375 179.703125 1234.089844 178.632812 C 1233.273438 177.5625 1233.53125 176.019531 1234.605469 175.246094 C 1235.675781 174.433594 1237.21875 174.6875 1237.988281 175.761719 C 1238.804688 176.832031 1238.589844 178.332031 1237.476562 179.148438 Z M 1232.246094 139.539062 C 1234.648438 127.625 1246.261719 119.863281 1258.179688 122.265625 C 1270.097656 124.664062 1277.855469 136.28125 1275.453125 148.199219 C 1273.054688 160.113281 1261.4375 167.875 1249.519531 165.472656 C 1237.605469 163.117188 1229.84375 151.5 1232.246094 139.539062 Z M 1293.070312 201.09375 C 1286.8125 211.511719 1273.269531 214.894531 1262.808594 208.636719 C 1252.390625 202.378906 1249.007812 188.835938 1255.265625 178.375 C 1261.523438 167.960938 1275.066406 164.574219 1285.527344 170.832031 C 1295.984375 177.089844 1299.328125 190.632812 1293.070312 201.09375 Z M 1291.914062 155.269531 C 1291.914062 152.441406 1294.1875 150.171875 1297.015625 150.171875 C 1299.84375 150.171875 1302.117188 152.441406 1302.117188 155.269531 C 1302.117188 158.101562 1299.84375 160.371094 1297.015625 160.371094 C 1294.1875 160.371094 1291.914062 158.101562 1291.914062 155.269531 Z M 1301.730469 222.226562 C 1300.488281 222.699219 1299.074219 222.054688 1298.601562 220.769531 C 1298.128906 219.527344 1298.773438 218.109375 1300.058594 217.640625 C 1301.300781 217.167969 1302.714844 217.8125 1303.1875 219.097656 C 1303.660156 220.382812 1303.015625 221.753906 1301.730469 222.226562 Z M 1339.449219 206.792969 C 1330.019531 214.511719 1316.132812 213.140625 1308.417969 203.707031 C 1300.703125 194.277344 1302.074219 180.390625 1311.503906 172.675781 C 1320.933594 164.957031 1334.820312 166.332031 1342.539062 175.761719 C 1350.253906 185.191406 1348.882812 199.078125 1339.449219 206.792969 Z M 1346.4375 160.84375 C 1334.992188 164.957031 1322.347656 158.957031 1318.277344 147.511719 C 1314.160156 136.066406 1320.160156 123.421875 1331.605469 119.351562 C 1343.050781 115.234375 1355.695312 121.238281 1359.769531 132.679688 C 1363.882812 144.125 1357.925781 156.730469 1346.4375 160.84375 Z M 1359.082031 176.230469 C 1357.753906 176.230469 1356.640625 175.160156 1356.640625 173.789062 C 1356.640625 172.460938 1357.710938 171.34375 1359.082031 171.34375 C 1360.410156 171.34375 1361.527344 172.417969 1361.527344 173.789062 C 1361.527344 175.117188 1360.410156 176.230469 1359.082031 176.230469 Z M 1359.082031 176.230469 " fill-opacity="1" fill-rule="nonzero"/></svg>